<mxfile host="app.diagrams.net" modified="2023-10-25T23:16:04.600Z" agent="Mozilla/5.0 (Windows NT 10.0; Win64; x64) AppleWebKit/537.36 (KHTML, like Gecko) Chrome/118.0.0.0 Safari/537.36 Edg/118.0.2088.46" etag="CplLdtS6lj09gAuCyh3L" version="22.0.8" type="github">
  <diagram name="Page-1" id="GDgWwbxKQp4ayPaAraZW">
    <mxGraphModel dx="1961" dy="1136" grid="1" gridSize="10" guides="1" tooltips="1" connect="1" arrows="1" fold="1" page="1" pageScale="1" pageWidth="1600" pageHeight="900" math="0" shadow="0">
      <root>
        <mxCell id="0" />
        <mxCell id="1" parent="0" />
        <mxCell id="t3zRMSXvRSppqgxEzzWb-3" style="edgeStyle=orthogonalEdgeStyle;rounded=0;orthogonalLoop=1;jettySize=auto;html=1;exitX=1;exitY=0;exitDx=0;exitDy=0;entryX=0;entryY=0.25;entryDx=0;entryDy=0;" edge="1" parent="1" source="t3zRMSXvRSppqgxEzzWb-1" target="t3zRMSXvRSppqgxEzzWb-2">
          <mxGeometry relative="1" as="geometry" />
        </mxCell>
        <mxCell id="t3zRMSXvRSppqgxEzzWb-4" value="POST /short URL" style="edgeLabel;html=1;align=center;verticalAlign=middle;resizable=0;points=[];" vertex="1" connectable="0" parent="t3zRMSXvRSppqgxEzzWb-3">
          <mxGeometry x="0.0586" y="2" relative="1" as="geometry">
            <mxPoint y="1" as="offset" />
          </mxGeometry>
        </mxCell>
        <mxCell id="t3zRMSXvRSppqgxEzzWb-1" value="USER" style="ellipse;whiteSpace=wrap;html=1;aspect=fixed;" vertex="1" parent="1">
          <mxGeometry x="70" y="350" width="80" height="80" as="geometry" />
        </mxCell>
        <mxCell id="t3zRMSXvRSppqgxEzzWb-10" style="edgeStyle=orthogonalEdgeStyle;rounded=0;orthogonalLoop=1;jettySize=auto;html=1;exitX=1;exitY=0.5;exitDx=0;exitDy=0;entryX=0;entryY=0.5;entryDx=0;entryDy=0;" edge="1" parent="1" source="t3zRMSXvRSppqgxEzzWb-2" target="t3zRMSXvRSppqgxEzzWb-8">
          <mxGeometry relative="1" as="geometry" />
        </mxCell>
        <mxCell id="t3zRMSXvRSppqgxEzzWb-2" value="LOAD BALANCER" style="rounded=0;whiteSpace=wrap;html=1;" vertex="1" parent="1">
          <mxGeometry x="440" y="325" width="60" height="130" as="geometry" />
        </mxCell>
        <mxCell id="t3zRMSXvRSppqgxEzzWb-5" style="edgeStyle=orthogonalEdgeStyle;rounded=0;orthogonalLoop=1;jettySize=auto;html=1;exitX=1;exitY=1;exitDx=0;exitDy=0;entryX=-0.033;entryY=0.692;entryDx=0;entryDy=0;entryPerimeter=0;" edge="1" parent="1" source="t3zRMSXvRSppqgxEzzWb-1" target="t3zRMSXvRSppqgxEzzWb-2">
          <mxGeometry relative="1" as="geometry" />
        </mxCell>
        <mxCell id="t3zRMSXvRSppqgxEzzWb-6" value="GET /long url" style="edgeLabel;html=1;align=center;verticalAlign=middle;resizable=0;points=[];" vertex="1" connectable="0" parent="t3zRMSXvRSppqgxEzzWb-5">
          <mxGeometry x="0.1419" relative="1" as="geometry">
            <mxPoint as="offset" />
          </mxGeometry>
        </mxCell>
        <mxCell id="t3zRMSXvRSppqgxEzzWb-7" value="" style="group" vertex="1" connectable="0" parent="1">
          <mxGeometry x="630" y="400" width="90" height="90" as="geometry" />
        </mxCell>
        <mxCell id="t3zRMSXvRSppqgxEzzWb-8" value="" style="whiteSpace=wrap;html=1;aspect=fixed;" vertex="1" parent="t3zRMSXvRSppqgxEzzWb-7">
          <mxGeometry width="80" height="80" as="geometry" />
        </mxCell>
        <mxCell id="t3zRMSXvRSppqgxEzzWb-9" value="WEB SERVERS" style="whiteSpace=wrap;html=1;aspect=fixed;" vertex="1" parent="t3zRMSXvRSppqgxEzzWb-7">
          <mxGeometry x="10" y="10" width="80" height="80" as="geometry" />
        </mxCell>
        <mxCell id="t3zRMSXvRSppqgxEzzWb-13" value="" style="group" vertex="1" connectable="0" parent="1">
          <mxGeometry x="850" y="290" width="130" height="90" as="geometry" />
        </mxCell>
        <mxCell id="t3zRMSXvRSppqgxEzzWb-11" value="IN-MEMORY&lt;br&gt;CACHE" style="shape=hexagon;perimeter=hexagonPerimeter2;whiteSpace=wrap;html=1;fixedSize=1;" vertex="1" parent="t3zRMSXvRSppqgxEzzWb-13">
          <mxGeometry width="120" height="80" as="geometry" />
        </mxCell>
        <mxCell id="t3zRMSXvRSppqgxEzzWb-12" value="IN-MEMORY&lt;br&gt;CACHE" style="shape=hexagon;perimeter=hexagonPerimeter2;whiteSpace=wrap;html=1;fixedSize=1;" vertex="1" parent="t3zRMSXvRSppqgxEzzWb-13">
          <mxGeometry x="10" y="10" width="120" height="80" as="geometry" />
        </mxCell>
        <mxCell id="t3zRMSXvRSppqgxEzzWb-14" value="UUID GENERATOR" style="whiteSpace=wrap;html=1;aspect=fixed;" vertex="1" parent="1">
          <mxGeometry x="860" y="590" width="80" height="80" as="geometry" />
        </mxCell>
        <mxCell id="t3zRMSXvRSppqgxEzzWb-15" style="edgeStyle=orthogonalEdgeStyle;rounded=0;orthogonalLoop=1;jettySize=auto;html=1;exitX=0.5;exitY=1;exitDx=0;exitDy=0;entryX=0.5;entryY=0;entryDx=0;entryDy=0;" edge="1" parent="1" source="t3zRMSXvRSppqgxEzzWb-9" target="t3zRMSXvRSppqgxEzzWb-14">
          <mxGeometry relative="1" as="geometry" />
        </mxCell>
        <mxCell id="t3zRMSXvRSppqgxEzzWb-17" value="MASTER&lt;br&gt;DATABASE" style="shape=cylinder3;whiteSpace=wrap;html=1;boundedLbl=1;backgroundOutline=1;size=15;" vertex="1" parent="1">
          <mxGeometry x="1110" y="370" width="60" height="80" as="geometry" />
        </mxCell>
        <mxCell id="t3zRMSXvRSppqgxEzzWb-18" style="edgeStyle=orthogonalEdgeStyle;rounded=0;orthogonalLoop=1;jettySize=auto;html=1;exitX=1;exitY=0.25;exitDx=0;exitDy=0;entryX=0;entryY=0.5;entryDx=0;entryDy=0;" edge="1" parent="1" source="t3zRMSXvRSppqgxEzzWb-9" target="t3zRMSXvRSppqgxEzzWb-11">
          <mxGeometry relative="1" as="geometry" />
        </mxCell>
        <mxCell id="t3zRMSXvRSppqgxEzzWb-20" value="Private Subnet" style="shape=umlFrame;whiteSpace=wrap;html=1;pointerEvents=0;" vertex="1" parent="1">
          <mxGeometry x="460" y="270" width="760" height="430" as="geometry" />
        </mxCell>
        <mxCell id="t3zRMSXvRSppqgxEzzWb-21" value="DATA WAREHOUSE" style="shape=cylinder3;whiteSpace=wrap;html=1;boundedLbl=1;backgroundOutline=1;size=15;" vertex="1" parent="1">
          <mxGeometry x="1510" y="590" width="60" height="80" as="geometry" />
        </mxCell>
        <mxCell id="t3zRMSXvRSppqgxEzzWb-22" style="edgeStyle=orthogonalEdgeStyle;rounded=0;orthogonalLoop=1;jettySize=auto;html=1;exitX=1;exitY=0.75;exitDx=0;exitDy=0;entryX=0;entryY=0.5;entryDx=0;entryDy=0;entryPerimeter=0;" edge="1" parent="1" source="t3zRMSXvRSppqgxEzzWb-9" target="t3zRMSXvRSppqgxEzzWb-21">
          <mxGeometry relative="1" as="geometry">
            <Array as="points">
              <mxPoint x="750" y="600" />
              <mxPoint x="1130" y="600" />
              <mxPoint x="1130" y="630" />
            </Array>
          </mxGeometry>
        </mxCell>
        <mxCell id="t3zRMSXvRSppqgxEzzWb-23" style="edgeStyle=orthogonalEdgeStyle;rounded=0;orthogonalLoop=1;jettySize=auto;html=1;exitX=1;exitY=0.5;exitDx=0;exitDy=0;entryX=0;entryY=0.5;entryDx=0;entryDy=0;entryPerimeter=0;" edge="1" parent="1" source="t3zRMSXvRSppqgxEzzWb-9" target="t3zRMSXvRSppqgxEzzWb-17">
          <mxGeometry relative="1" as="geometry" />
        </mxCell>
        <mxCell id="t3zRMSXvRSppqgxEzzWb-24" value="" style="shape=cylinder3;whiteSpace=wrap;html=1;boundedLbl=1;backgroundOutline=1;size=15;" vertex="1" parent="1">
          <mxGeometry x="1100" y="480" width="60" height="80" as="geometry" />
        </mxCell>
        <mxCell id="t3zRMSXvRSppqgxEzzWb-25" value="SLAVE DBs" style="shape=cylinder3;whiteSpace=wrap;html=1;boundedLbl=1;backgroundOutline=1;size=15;" vertex="1" parent="1">
          <mxGeometry x="1110" y="490" width="60" height="80" as="geometry" />
        </mxCell>
        <mxCell id="t3zRMSXvRSppqgxEzzWb-26" style="edgeStyle=orthogonalEdgeStyle;rounded=0;orthogonalLoop=1;jettySize=auto;html=1;exitX=1;exitY=0.75;exitDx=0;exitDy=0;entryX=0;entryY=0;entryDx=0;entryDy=27.5;entryPerimeter=0;" edge="1" parent="1" source="t3zRMSXvRSppqgxEzzWb-9" target="t3zRMSXvRSppqgxEzzWb-24">
          <mxGeometry relative="1" as="geometry" />
        </mxCell>
        <mxCell id="t3zRMSXvRSppqgxEzzWb-27" value="DATA TIER" style="shape=umlFrame;whiteSpace=wrap;html=1;pointerEvents=0;" vertex="1" parent="1">
          <mxGeometry x="1050" y="200" width="210" height="550" as="geometry" />
        </mxCell>
        <mxCell id="t3zRMSXvRSppqgxEzzWb-28" value="WEB TIER" style="shape=umlFrame;whiteSpace=wrap;html=1;pointerEvents=0;" vertex="1" parent="1">
          <mxGeometry x="600" y="200" width="210" height="560" as="geometry" />
        </mxCell>
        <mxCell id="t3zRMSXvRSppqgxEzzWb-29" value="" style="group" vertex="1" connectable="0" parent="1">
          <mxGeometry x="650" y="530" width="130" height="90" as="geometry" />
        </mxCell>
        <mxCell id="t3zRMSXvRSppqgxEzzWb-30" value="IN-MEMORY&lt;br&gt;CACHE" style="shape=hexagon;perimeter=hexagonPerimeter2;whiteSpace=wrap;html=1;fixedSize=1;" vertex="1" parent="t3zRMSXvRSppqgxEzzWb-29">
          <mxGeometry width="120" height="80" as="geometry" />
        </mxCell>
        <mxCell id="t3zRMSXvRSppqgxEzzWb-31" value="IN-MEMORY&lt;br&gt;CACHE" style="shape=hexagon;perimeter=hexagonPerimeter2;whiteSpace=wrap;html=1;fixedSize=1;" vertex="1" parent="t3zRMSXvRSppqgxEzzWb-29">
          <mxGeometry x="10" y="10" width="120" height="80" as="geometry" />
        </mxCell>
      </root>
    </mxGraphModel>
  </diagram>
</mxfile>
